<?xml version="1.0" encoding="utf-8"?>
<svg xmlns="http://www.w3.org/2000/svg" viewBox="0 0 112 85.1">
	<title>Marathon Petroleum Corporate logo</title>
  <path id="holding_line_1_" fill="#fff" d="M79 2.6c4 .1 8 2.7 9.6 6.5l9.8 22 7.8 17.5c.5 1.7.5 3.7.2 5.5l-5.8 21.4c-1.3 3.7-5.2 6.8-9.1 7.1H18c-3.8-.2-7.7-2.9-9.1-6.5l-.8-2.3-3-11.1L2.8 54c-.4-2-.1-4 .5-5.8L20.2 9.5c1.4-3.9 5.5-6.7 9.6-6.9H79z"/>
  <path fill="#fff" d="M91.7 84.6H17.9c-4.7-.3-9.2-3.5-10.9-7.9l-.9-2.6L.7 54.3c-.4-2.2-.2-4.6.6-6.8l.1-.1L18.2 8.7A13 13 0 0 1 29.7.5H79c5 .1 9.7 3.3 11.6 7.8l17.7 39.6c.8 2.4.5 5.1.3 6.5v.2l-5.8 21.6c-1.7 4.5-6.3 8.1-11.1 8.4zm-73.6-4.2h73.4c3-.3 6.1-2.6 7.1-5.6l5.7-21.2c.3-1.6.2-3.2-.1-4.3L86.7 9.9c-1.3-3-4.4-5.1-7.8-5.2H29.8c-3.2.1-6.5 2.5-7.6 5.5v.1L5.3 49c-.5 1.5-.7 3.1-.4 4.5L10.2 73l.8 2.3c1 2.7 4 4.9 7.1 5.1z"/>
  <path id="blue_line_shield" fill="#0033a1" d="M78 4.1c3.9.1 7.7 2.6 9.2 6.2l9.5 21.1 7.5 16.8c.5 1.6.5 3.6.2 5.3l-5.6 20.6c-1.3 3.6-5 6.5-8.7 6.8H19.4c-3.7-.2-7.4-2.8-8.7-6.3l-.7-2.1-3-10.7-2.3-8.2c-.3-1.9-.1-3.9.5-5.5l16.2-37.2c1.4-3.8 5.3-6.5 9.2-6.6H78z"/>
  <path id="white_inside_shield" fill="#fff" d="M78.3 7.9c2.5.2 5 2.3 5.8 4.8l14.9 33c.9 1.9 2.5 4.1 1.9 6.7l-.8 3.4-4.5 16.6c-.6 2.5-3.1 4.4-5.5 4.8H20.3c-2.2 0-4.2-.9-5.6-2.8-1.3-2.2-6.4-22-6.4-22-.2-1.9.5-3.6 1.3-5.2l12.6-28.8 3.1-7c1.3-2.3 3.7-3.5 6.1-3.6l46.9.1z"/>
  <path id="BIG_M" fill-rule="evenodd" clip-rule="evenodd" fill="#db0032" d="M54.5 37.7l8.7-22.5h13.3l11.8 38.4H72l-1.8-21.1-10.5 21.1H49.4L38.8 32.7 37 53.6H20.8l11.4-38.4h13.3z"/>
  <path id="M" fill="#0033a1" d="M23.4 63.9l1.1-5.5h3.4l1.3 10.7h-2.6l-.8-6.9c-.4 2.3-.8 4.6-1.1 6.9H22l-1.2-6.9c-.3 2.3-.5 4.6-.8 6.9h-2.6l1.5-10.8h3.4l1.1 5.6z"/>
  <path id="A" fill="#0033a1" d="M38.5 69.1h-2.7l-.3-1.9H33l-.4 1.9h-2.7l2.3-10.8h4z"/>
  <path id="R" fill="#0033a1" d="M45.5 58.6c1.6.8 1.5 2.7 1.4 4.2-.2.8-.5 1.7-1.4 2v.3L47 69h-2.6l-1.3-3.8c-.2-.1-.5-.1-.7 0V69h-2.6V58.3c.1 0 4.2-.3 5.7.3z"/>
  <path id="A__x23_2" fill="#0033a1" d="M56.4 69.1h-2.8l-.3-1.9h-2.5l-.4 1.9h-2.6L50 58.3h4z"/>
  <path id="T" fill="#0033a1" d="M63.1 60.6h-2.3v8.5h-2.6v-8.5h-2.3v-2.3h7.2z"/>
  <path id="H" fill="#0033a1" d="M66.7 62.6H69v-4.3h2.7v10.8H69v-4.2h-2.3v4.2h-2.6V58.3h2.6z"/>
  <path id="O_1_" fill="#0033a1" d="M77.4 69.3c-1.5 0-2.7-.4-3.4-1.4-.6-1-.8-2.2-.8-4.3 0-2.2.4-4.1 1.6-4.7 1.2-.6 1.8-.7 2.5-.7s1.4 0 2.5.7c1.2.6 1.6 2.5 1.6 4.7s-.1 3.4-.8 4.3c-.5 1-1.7 1.4-3.2 1.4"/>
  <path id="N" fill="#0033a1" d="M88.5 65.2v-6.9h2.4v10.8h-3.5l-1.9-6.5v6.5h-2.3V58.3h3.5z"/>
  <g>
    <path id="inside_A" fill="#fff" d="M35 65.2h-1.7l.9-4.6c.4 1.4.6 3 .8 4.6z"/>
    <path id="inside_R" fill="#fff" d="M44 60.7c.4.5.5 1.3.3 1.9-.2.2-.2.5-.6.5h-1.1v-2.6c-.1 0 1-.1 1.4.2z"/>
    <path id="inside_A_2nd" fill="#fff" d="M52.9 65.2h-1.7l.9-4.6c.3 1.4.5 3 .8 4.6z"/>
    <path id="inside_O_1_" fill="#fff" d="M77.4 67.1c-.5 0-1-.2-1.2-.9-.2-.6-.3-1.3-.3-2.6s.1-2.5.6-2.9c.4-.4.7-.4.9-.4.3 0 .5 0 .9.4s.6 1.5.6 2.9c0 1.3-.1 2-.3 2.6-.2.7-.7.9-1.2.9"/>
  </g>
  <g>
    <path fill="currentColor" d="M104.7 77.6c0-1.9 1.6-3.4 3.4-3.4 1.8 0 3.4 1.4 3.4 3.4s-1.6 3.4-3.4 3.4c-1.9 0-3.4-1.4-3.4-3.4zm3.4 2.8c1.5 0 2.7-1.2 2.7-2.8 0-1.6-1.2-2.8-2.7-2.8a2.8 2.8 0 0 0-2.8 2.8c.1 1.6 1.3 2.8 2.8 2.8zm-.7-.8h-.6v-3.9h1.5c.9 0 1.4.3 1.4 1.1 0 .7-.4 1-1 1.1l1.1 1.7h-.7l-1-1.7h-.7v1.7zm.7-2.2c.5 0 .9 0 .9-.6 0-.5-.4-.6-.9-.6h-.8v1.2h.8z"/>
  </g>
</svg>
